<svg xmlns="http://www.w3.org/2000/svg" xmlns:xlink="http://www.w3.org/1999/xlink" version="1.1" x="0px" y="0px" viewBox="0 0 100 125" style="enable-background:new 0 0 100 100;" xml:space="preserve"><symbol viewBox="-12.754 -31.378 25.509 59.818"><g><path style="" d="M6.112,10.396H-6.112    c-2.003,0-3.643-1.639-3.643-3.643V-8.43c0-1.816,1.486-3.302,3.302-3.302h0.36v-13.344c0-1.816,1.486-3.302,3.302-3.302H2.79    c1.816,0,3.302,1.486,3.302,3.302v13.344h0.36c1.816,0,3.302,1.486,3.302,3.302V6.754C9.754,8.757,8.115,10.396,6.112,10.396z" fill="#FFFFFF" stroke="#F1F2F2" stroke-width="6" stroke-miterlimit="3"/><g><path style="" d="M-0.646,18.281c-1.252,0-2.271,1.019-2.271,2.271v2.617c0,1.252,1.019,2.271,2.271,2.271h1.292     c1.252,0,2.271-1.019,2.271-2.271v-2.617c0-1.252-1.019-2.271-2.271-2.271H-0.646z" fill="#FFFFFF"/><path style="" d="M0.646,28.44h-1.292c-2.899,0-5.271-2.372-5.271-5.271v-2.617c0-2.899,2.372-5.271,5.271-5.271     h1.292c2.899,0,5.271,2.372,5.271,5.271v2.617C5.917,26.068,3.545,28.44,0.646,28.44L0.646,28.44z" fill="#F1F2F2"/></g></g><g><path style="" d="M6.112,10.396H-6.112c-2.003,0-3.643-1.639-3.643-3.643V-8.43    c0-1.816,1.486-3.302,3.302-3.302h0.36v-13.344c0-1.816,1.486-3.302,3.302-3.302H2.79c1.816,0,3.302,1.486,3.302,3.302v13.344    h0.36c1.816,0,3.302,1.486,3.302,3.302V6.754C9.754,8.757,8.115,10.396,6.112,10.396z" stroke="#000000" stroke-miterlimit="3"/><g><path d="M-0.646,15.781c-2.631,0-4.771,2.14-4.771,4.771v2.617c0,2.631,2.14,4.771,4.771,4.771h1.292     c2.631,0,4.771-2.14,4.771-4.771v-2.617c0-2.631-2.14-4.771-4.771-4.771H-0.646z"/><path d="M0.646,27.44c2.355,0,4.271-1.916,4.271-4.271v-2.617c0-2.355-1.916-4.271-4.271-4.271h-1.292     c-2.355,0-4.271,1.916-4.271,4.271v2.617c0,2.355,1.916,4.271,4.271,4.271H0.646 M0.646,28.44h-1.292     c-2.899,0-5.271-2.372-5.271-5.271v-2.617c0-2.899,2.372-5.271,5.271-5.271h1.292c2.899,0,5.271,2.372,5.271,5.271v2.617     C5.917,26.068,3.545,28.44,0.646,28.44L0.646,28.44z"/></g></g></symbol><symbol viewBox="-12.754 -31.379 25.509 59.819"><g><path style="" d="M6.112,10.396H-6.112    c-2.003,0-3.643-1.639-3.643-3.643V-8.431c0-1.816,1.486-3.302,3.302-3.302h0.36v-13.344c0-1.816,1.486-3.302,3.302-3.302H2.79    c1.816,0,3.302,1.486,3.302,3.302v13.344h0.36c1.816,0,3.302,1.486,3.302,3.302V6.753C9.754,8.757,8.115,10.396,6.112,10.396z" fill="#FFFFFF" stroke="#F1F2F2" stroke-width="6" stroke-miterlimit="3"/><g><path style="" d="M-0.646,18.281c-1.252,0-2.271,1.019-2.271,2.271v2.617c0,1.252,1.019,2.271,2.271,2.271h1.292     c1.252,0,2.271-1.019,2.271-2.271v-2.617c0-1.252-1.019-2.271-2.271-2.271H-0.646z" fill="#FFFFFF"/><path style="" d="M0.646,28.44h-1.292c-2.899,0-5.271-2.372-5.271-5.271v-2.617c0-2.899,2.372-5.271,5.271-5.271     h1.292c2.899,0,5.271,2.372,5.271,5.271v2.617C5.917,26.068,3.545,28.44,0.646,28.44L0.646,28.44z" fill="#F1F2F2"/></g></g><g><path style="" d="M6.112,10.396H-6.112    c-2.003,0-3.643-1.639-3.643-3.643V-8.431c0-1.816,1.486-3.302,3.302-3.302h0.36v-13.344c0-1.816,1.486-3.302,3.302-3.302H2.79    c1.816,0,3.302,1.486,3.302,3.302v13.344h0.36c1.816,0,3.302,1.486,3.302,3.302V6.753C9.754,8.757,8.115,10.396,6.112,10.396z" fill="#FFFFFF" stroke="#000000" stroke-width="3" stroke-miterlimit="3"/><g><path style="" d="M-0.646,16.656c-2.148,0-3.896,1.748-3.896,3.896v2.617c0,2.148,1.748,3.896,3.896,3.896h1.292     c2.148,0,3.896-1.748,3.896-3.896v-2.617c0-2.148-1.748-3.896-3.896-3.896H-0.646z" fill="#FFFFFF"/><path d="M0.646,25.69c1.39,0,2.521-1.131,2.521-2.521v-2.617c0-1.39-1.131-2.521-2.521-2.521h-1.292     c-1.39,0-2.521,1.131-2.521,2.521v2.617c0,1.39,1.131,2.521,2.521,2.521H0.646 M0.646,28.44h-1.292     c-2.899,0-5.271-2.372-5.271-5.271v-2.617c0-2.899,2.372-5.271,5.271-5.271h1.292c2.899,0,5.271,2.372,5.271,5.271v2.617     C5.917,26.068,3.545,28.44,0.646,28.44L0.646,28.44z"/></g></g></symbol><symbol viewBox="-14.821 -32.984 29.644 65.967"><g><path style="" d="M3.372,9.536h-6.744    c-4.372,0-7.95-3.577-7.95-7.95v-11.902c0-2.108,1.725-3.832,3.832-3.832h0.418v-11.503c0-2.108,1.725-3.832,3.832-3.832h6.478    c2.108,0,3.832,1.725,3.832,3.832v11.503H7.49c2.108,0,3.832,1.725,3.832,3.832V1.586C11.322,5.959,7.745,9.536,3.372,9.536z" fill="#FFFFFF" stroke="#F2F2F2" stroke-width="7" stroke-miterlimit="3"/><path style="" d="M0.75,14.209h-1.5    c-3.365,0-6.118,2.753-6.118,6.118v3.038c0,3.365,2.753,6.118,6.118,6.118h1.5c3.365,0,6.118-2.753,6.118-6.118v-3.038    C6.868,16.962,4.115,14.209,0.75,14.209z" fill="#FFFFFF" stroke="#F2F2F2" stroke-width="7" stroke-miterlimit="3"/></g><g><g><path d="M-3.238-28.483c-1.562,0-2.833,1.271-2.833,2.832v12.503h-1.418c-1.562,0-2.833,1.271-2.833,2.833V1.586     c0,3.832,3.118,6.95,6.95,6.95h6.744c3.832,0,6.95-3.118,6.95-6.95v-11.901c0-1.563-1.271-2.833-2.833-2.833H6.072v-12.503     c0-1.562-1.271-2.832-2.833-2.832H-3.238z"/><path d="M3.372,7.536c3.281,0,5.95-2.669,5.95-5.95v-11.902c0-1.01-0.822-1.833-1.832-1.833H7.072h-2v-2v-11.503     c0-1.01-0.822-1.833-1.833-1.833h-6.478c-1.01,0-1.832,0.822-1.832,1.833v11.503v2h-2h-0.418c-1.01,0-1.832,0.822-1.832,1.833     V1.586c0,3.281,2.669,5.95,5.95,5.95H3.372 M3.372,9.536h-6.744c-4.372,0-7.95-3.577-7.95-7.95v-11.902     c0-2.108,1.725-3.833,3.832-3.833h0.418v-11.503c0-2.108,1.725-3.833,3.832-3.833h6.478c2.108,0,3.833,1.725,3.833,3.833v11.503     H7.49c2.108,0,3.832,1.725,3.832,3.833V1.586C11.322,5.959,7.745,9.536,3.372,9.536L3.372,9.536z"/></g><g><path d="M-0.75,15.209c-2.822,0-5.118,2.296-5.118,5.118v3.038c0,2.821,2.296,5.117,5.118,5.117h1.5     c2.822,0,5.118-2.296,5.118-5.117v-3.038c0-2.822-2.296-5.118-5.118-5.118H-0.75z"/><path d="M0.75,27.483c2.271,0,4.118-1.847,4.118-4.118v-3.038c0-2.271-1.847-4.118-4.118-4.118h-1.5     c-2.271,0-4.118,1.847-4.118,4.118v3.038c0,2.271,1.847,4.118,4.118,4.118H0.75 M0.75,29.483h-1.5     c-3.365,0-6.118-2.753-6.118-6.118v-3.038c0-3.365,2.753-6.118,6.118-6.118h1.5c3.365,0,6.118,2.753,6.118,6.118v3.038     C6.868,26.73,4.115,29.483,0.75,29.483L0.75,29.483z"/></g></g></symbol><symbol viewBox="-13.754 -32.379 27.509 60.818"><g><path style="" d="M6.112,10.396H-6.112    c-2.003,0-3.643-1.639-3.643-3.643V-8.431c0-1.816,1.486-3.302,3.302-3.302h0.36v-13.344c0-1.816,1.486-3.302,3.302-3.302H2.79    c1.816,0,3.302,1.486,3.302,3.302v13.344h0.36c1.816,0,3.302,1.486,3.302,3.302V6.753C9.755,8.757,8.115,10.396,6.112,10.396z" fill="#FFFFFF" stroke="#F1F2F2" stroke-width="8" stroke-miterlimit="3"/><g><path style="" d="M-0.646,19.28c-0.689,0-1.271,0.582-1.271,1.271v2.617c0,0.689,0.582,1.271,1.271,1.271h1.292     c0.689,0,1.271-0.582,1.271-1.271v-2.617c0-0.689-0.582-1.271-1.271-1.271H-0.646z" fill="#FFFFFF"/><path style="" d="M0.646,28.439h-1.292c-2.899,0-5.271-2.372-5.271-5.271v-2.617c0-2.899,2.372-5.271,5.271-5.271     h1.292c2.899,0,5.271,2.372,5.271,5.271v2.617C5.917,26.068,3.545,28.439,0.646,28.439L0.646,28.439z" fill="#F1F2F2"/></g></g><g><path style="" d="M6.112,10.396H-6.112c-2.003,0-3.643-1.639-3.643-3.643V-8.431    c0-1.816,1.486-3.302,3.302-3.302h0.36v-13.344c0-1.816,1.486-3.302,3.302-3.302H2.79c1.816,0,3.302,1.486,3.302,3.302v13.344    h0.36c1.816,0,3.302,1.486,3.302,3.302V6.753C9.755,8.757,8.115,10.396,6.112,10.396z" stroke="#FFFFFF" stroke-miterlimit="10"/><g><path d="M-0.646,15.78c-2.631,0-4.771,2.14-4.771,4.771v2.617c0,2.631,2.14,4.771,4.771,4.771h1.292     c2.631,0,4.771-2.14,4.771-4.771v-2.617c0-2.631-2.14-4.771-4.771-4.771H-0.646z"/><path style="" d="M0.646,27.439c2.355,0,4.271-1.916,4.271-4.271v-2.617c0-2.355-1.916-4.271-4.271-4.271h-1.292     c-2.355,0-4.271,1.916-4.271,4.271v2.617c0,2.355,1.916,4.271,4.271,4.271H0.646 M0.646,28.439h-1.292     c-2.899,0-5.271-2.372-5.271-5.271v-2.617c0-2.899,2.372-5.271,5.271-5.271h1.292c2.899,0,5.271,2.372,5.271,5.271v2.617     C5.917,26.068,3.545,28.439,0.646,28.439L0.646,28.439z" fill="#FFFFFF"/></g></g></symbol><symbol viewBox="-14.822 -32.984 29.644 65.967"><g><path style="" d="M3.372,9.536h-6.744    c-4.372,0-7.95-3.577-7.95-7.95v-11.902c0-2.108,1.725-3.832,3.832-3.832h0.418v-11.503c0-2.108,1.725-3.832,3.832-3.832h6.478    c2.108,0,3.832,1.725,3.832,3.832v11.503h0.418c2.108,0,3.832,1.725,3.832,3.832V1.586C11.322,5.959,7.745,9.536,3.372,9.536z" fill="#FFFFFF" stroke="#F2F2F2" stroke-width="7" stroke-miterlimit="3"/><path style="" d="M0.75,14.209h-1.5    c-3.365,0-6.118,2.753-6.118,6.118v3.038c0,3.365,2.753,6.118,6.118,6.118h1.5c3.365,0,6.118-2.753,6.118-6.118v-3.038    C6.868,16.962,4.115,14.209,0.75,14.209z" fill="#FFFFFF" stroke="#F2F2F2" stroke-width="7" stroke-miterlimit="3"/></g><g><g><path style="" d="M-3.238-27.483c-1.011,0-1.833,0.822-1.833,1.832v13.503h-2.418c-1.01,0-1.832,0.822-1.832,1.833     V1.586c0,3.281,2.669,5.95,5.949,5.95h6.744c3.281,0,5.95-2.669,5.95-5.95v-11.901c0-1.011-0.822-1.833-1.833-1.833H5.071     v-13.503c0-1.01-0.822-1.832-1.832-1.832H-3.238z" fill="#FFFFFF"/><path d="M3.372,5.536c2.178,0,3.95-1.772,3.95-3.95v-11.734h-0.25h-4v-4v-11.336h-6.143v11.336v4h-4h-0.251V1.586     c0,2.178,1.772,3.95,3.95,3.95H3.372 M3.372,9.536h-6.744c-4.372,0-7.95-3.577-7.95-7.95v-11.902     c0-2.108,1.725-3.832,3.833-3.832h0.418v-11.503c0-2.108,1.725-3.832,3.833-3.832h6.478c2.108,0,3.833,1.725,3.833,3.832v11.503     H7.49c2.108,0,3.832,1.725,3.832,3.832V1.586C11.322,5.959,7.745,9.536,3.372,9.536L3.372,9.536z"/></g><g><path style="" d="M-0.75,16.209c-2.271,0-4.117,1.848-4.117,4.118v3.038c0,2.271,1.847,4.118,4.117,4.118h1.5     c2.271,0,4.118-1.848,4.118-4.118v-3.038c0-2.271-1.848-4.118-4.118-4.118H-0.75z" fill="#FFFFFF"/><path d="M0.75,25.483c1.148,0,2.118-0.97,2.118-2.118v-3.038c0-1.148-0.97-2.118-2.118-2.118h-1.5     c-1.148,0-2.118,0.97-2.118,2.118v3.038c0,1.148,0.97,2.118,2.118,2.118H0.75 M0.75,29.483h-1.5     c-3.365,0-6.118-2.753-6.118-6.118v-3.038c0-3.365,2.753-6.118,6.118-6.118h1.5c3.365,0,6.118,2.753,6.118,6.118v3.038     C6.868,26.73,4.115,29.483,0.75,29.483L0.75,29.483z"/></g></g></symbol><symbol viewBox="-14.321 -32.483 28.644 64.967"><g><path style="" d="M3.373,9.536h-6.744    c-4.372,0-7.95-3.577-7.95-7.95v-11.902c0-2.108,1.725-3.832,3.832-3.832h0.418v-11.503c0-2.108,1.725-3.832,3.832-3.832h6.478    c2.108,0,3.832,1.725,3.832,3.832v11.503H7.49c2.108,0,3.832,1.725,3.832,3.832V1.586C11.323,5.959,7.745,9.536,3.373,9.536z" fill="#FFFFFF" stroke="#F2F2F2" stroke-width="6" stroke-miterlimit="3"/><path style="" d="M0.75,14.209h-1.5    c-3.365,0-6.118,2.753-6.118,6.118v3.038c0,3.365,2.753,6.118,6.118,6.118h1.5c3.365,0,6.118-2.753,6.118-6.118v-3.038    C6.868,16.962,4.115,14.209,0.75,14.209z" fill="#FFFFFF" stroke="#F2F2F2" stroke-width="6" stroke-miterlimit="3"/></g><g><g><path d="M-3.238-27.483c-1.01,0-1.832,0.822-1.832,1.832v13.504h-2.418c-1.011,0-1.833,0.822-1.833,1.832V1.587     c0,3.28,2.669,5.949,5.95,5.949h6.744c3.28,0,5.949-2.669,5.949-5.949v-11.902c0-1.01-0.822-1.832-1.832-1.832H5.072v-13.504     c0-1.01-0.822-1.832-1.833-1.832H-3.238z"/><path d="M3.373,5.536c2.178,0,3.95-1.772,3.95-3.95v-11.734H7.072h-4v-4v-11.336h-6.143v11.336v4h-4h-0.25V1.586     c0,2.178,1.772,3.95,3.95,3.95H3.373 M3.373,9.536h-6.744c-4.372,0-7.95-3.577-7.95-7.95v-11.902     c0-2.108,1.725-3.832,3.833-3.832h0.418v-11.503c0-2.108,1.725-3.833,3.833-3.833H3.24c2.108,0,3.832,1.725,3.832,3.833v11.503     H7.49c2.108,0,3.833,1.725,3.833,3.832V1.586C11.323,5.959,7.745,9.536,3.373,9.536L3.373,9.536z"/></g><g><path d="M-0.674,16.974c-1.934,0-3.507,1.572-3.507,3.506v2.734c0,1.934,1.573,3.506,3.507,3.506h1.35     c1.934,0,3.506-1.572,3.506-3.506v-2.734c0-1.934-1.572-3.506-3.506-3.506H-0.674z"/><path d="M0.676,24.719c0.816,0,1.506-0.69,1.506-1.506v-2.734c0-0.816-0.69-1.506-1.506-1.506h-1.35     c-0.816,0-1.506,0.69-1.506,1.506v2.734c0,0.816,0.69,1.506,1.506,1.506H0.676 M0.676,28.719h-1.35     c-3.028,0-5.506-2.478-5.506-5.506v-2.734c0-3.028,2.478-5.506,5.506-5.506h1.35c3.028,0,5.506,2.478,5.506,5.506v2.734     C6.182,26.242,3.704,28.719,0.676,28.719L0.676,28.719z"/></g></g></symbol><symbol viewBox="-13.754 -32.378 27.509 60.818"><g><path style="" d="M6.112,10.396H-6.112    c-2.003,0-3.643-1.639-3.643-3.643V-8.43c0-1.816,1.486-3.302,3.302-3.302h0.36v-13.344c0-1.816,1.486-3.302,3.302-3.302h5.581    c1.816,0,3.302,1.486,3.302,3.302v13.344h0.36c1.816,0,3.302,1.486,3.302,3.302V6.754C9.755,8.757,8.116,10.396,6.112,10.396z" fill="#FFFFFF" stroke="#F1F2F2" stroke-width="8" stroke-miterlimit="3"/><g><path style="" d="M-0.646,19.281c-0.689,0-1.271,0.582-1.271,1.271v2.618c0,0.688,0.582,1.271,1.271,1.271h1.292     c0.688,0,1.271-0.582,1.271-1.271v-2.618c0-0.689-0.582-1.271-1.271-1.271H-0.646z" fill="#FFFFFF"/><path style="" d="M0.646,28.44h-1.292c-2.899,0-5.271-2.372-5.271-5.271v-2.617c0-2.899,2.372-5.271,5.271-5.271     h1.292c2.899,0,5.271,2.372,5.271,5.271v2.617C5.917,26.068,3.545,28.44,0.646,28.44L0.646,28.44z" fill="#F1F2F2"/></g></g><g><path style="" d="M6.112,10.396H-6.112    c-2.003,0-3.643-1.639-3.643-3.643V-8.43c0-1.816,1.486-3.302,3.302-3.302h0.36v-13.344c0-1.816,1.486-3.302,3.302-3.302h5.581    c1.816,0,3.302,1.486,3.302,3.302v13.344h0.36c1.816,0,3.302,1.486,3.302,3.302V6.754C9.755,8.757,8.116,10.396,6.112,10.396z" fill="#FFFFFF" stroke="#000000" stroke-width="2" stroke-miterlimit="3"/><g><path style="" d="M-0.646,16.281c-2.355,0-4.271,1.916-4.271,4.271v2.618c0,2.355,1.916,4.271,4.271,4.271h1.292     c2.354,0,4.271-1.916,4.271-4.271v-2.618c0-2.355-1.916-4.271-4.271-4.271H-0.646z" fill="#FFFFFF"/><path d="M0.646,26.44c1.804,0,3.271-1.467,3.271-3.271v-2.617c0-1.804-1.467-3.271-3.271-3.271h-1.292     c-1.804,0-3.271,1.467-3.271,3.271v2.617c0,1.804,1.467,3.271,3.271,3.271H0.646 M0.646,28.44h-1.292     c-2.899,0-5.271-2.372-5.271-5.271v-2.617c0-2.899,2.372-5.271,5.271-5.271h1.292c2.899,0,5.271,2.372,5.271,5.271v2.617     C5.917,26.068,3.545,28.44,0.646,28.44L0.646,28.44z"/></g></g></symbol><g style="" display="none"><rect x="-169" y="-379" style="" width="1430" height="1298" display="inline" fill="#66CC99"/></g><g><g><path d="M15.364,27.999c2.407,0,4.497-1.303,5.658-3.227c-0.49-1.284-0.77-2.67-0.77-4.123c0-1.098,0.163-2.158,0.45-3.165    c-1.206-1.65-3.142-2.736-5.338-2.736c-3.654,0-6.626,2.972-6.626,6.626S11.71,27.999,15.364,27.999z"/><path d="M7.47,58.448l1.63,0.356v16.424c0,1.731,1.409,3.14,3.14,3.14h6.247c0.839,0,1.598-0.335,2.162-0.873V65.016    c-2.683-1.263-4.498-4.008-4.498-7.059V43.246c0-3.212,1.262-6.129,3.304-8.303c-0.278-0.033-0.551-0.085-0.839-0.085h-6.505    C8.19,34.858,5,38.049,5,41.97V55.38C5,56.845,6.038,58.136,7.47,58.448z"/><path d="M31.869,28.12c2.779,0,5.204-1.529,6.491-3.787c-0.522-1.373-0.82-2.855-0.82-4.409c0-1.207,0.181-2.372,0.503-3.476    c-1.346-1.972-3.61-3.27-6.173-3.27c-4.12,0-7.471,3.351-7.471,7.471S27.75,28.12,31.869,28.12z"/><path d="M37.971,68.103c-2.916-1.321-4.897-4.277-4.897-7.568V44.522c0-3.563,1.439-6.794,3.762-9.15    c-0.455-0.081-0.921-0.13-1.398-0.13h-7.137c-4.413,0-8.004,3.591-8.004,8.004v14.711c0,1.701,1.206,3.2,2.868,3.563l1.63,0.356    v17.856c0,2.011,1.636,3.647,3.647,3.647h6.854c1.061,0,2.008-0.463,2.676-1.188V68.103z"/><path d="M78.978,24.771c1.161,1.925,3.251,3.228,5.658,3.228c3.654,0,6.626-2.972,6.626-6.626s-2.972-6.626-6.626-6.626    c-2.196,0-4.131,1.086-5.338,2.736c0.286,1.008,0.449,2.067,0.449,3.165C79.748,22.102,79.468,23.488,78.978,24.771z"/><path d="M81.383,34.858c-0.287,0-0.56,0.052-0.839,0.085c2.042,2.175,3.304,5.091,3.304,8.303v14.711    c0,3.051-1.815,5.796-4.497,7.059v12.479c0.564,0.538,1.323,0.873,2.161,0.873h6.247c1.732,0,3.141-1.409,3.141-3.14V58.804    l1.63-0.356C93.962,58.136,95,56.845,95,55.38V41.97c0-3.922-3.19-7.112-7.112-7.112H81.383z"/><path d="M61.641,24.335c1.287,2.257,3.712,3.785,6.49,3.785c4.12,0,7.471-3.352,7.471-7.471s-3.351-7.471-7.471-7.471    c-2.562,0-4.826,1.298-6.173,3.269c0.322,1.105,0.503,2.27,0.503,3.478C62.462,21.479,62.163,22.961,61.641,24.335z"/><path d="M79.703,43.246c0-4.414-3.591-8.004-8.004-8.004h-7.137c-0.478,0-0.943,0.05-1.398,0.13    c2.323,2.356,3.762,5.587,3.762,9.15v16.013c0,3.29-1.981,6.245-4.896,7.566v14.092c0.667,0.724,1.614,1.186,2.674,1.186h6.854    c2.011,0,3.647-1.636,3.647-3.647V61.877l1.63-0.356c1.661-0.363,2.867-1.862,2.867-3.563V43.246z"/><path d="M50.001,28.24c4.585,0,8.315-3.73,8.315-8.315s-3.73-8.315-8.315-8.315s-8.315,3.73-8.315,8.315    S45.416,28.24,50.001,28.24z"/><path d="M62.78,44.522c0-4.906-3.991-8.896-8.896-8.896h-7.768c-4.905,0-8.896,3.991-8.896,8.896v16.013    c0,1.939,1.373,3.645,3.266,4.058l1.631,0.356v19.289c0,2.29,1.863,4.153,4.153,4.153h7.46c2.29,0,4.153-1.863,4.153-4.153V64.948    l1.631-0.356c1.891-0.414,3.265-2.119,3.265-4.057V44.522z"/></g></g></svg>
